<mxfile host="app.diagrams.net" modified="2024-06-21T02:45:13.685Z" agent="Mozilla/5.0 (Macintosh; Intel Mac OS X 10_15_7) AppleWebKit/537.36 (KHTML, like Gecko) Chrome/126.0.0.0 Safari/537.36" etag="Ozqavn4jSZjKOgsB-uZc" version="24.5.5" type="github">
  <diagram id="wFE0QG_FPsp0jaGvCLVb" name="Page-1">
    <mxGraphModel dx="1383" dy="761" grid="1" gridSize="10" guides="1" tooltips="1" connect="1" arrows="1" fold="1" page="1" pageScale="1" pageWidth="850" pageHeight="1100" math="0" shadow="0">
      <root>
        <mxCell id="0" />
        <mxCell id="1" parent="0" />
        <mxCell id="t2Dr9ju3xtauYycBKMf6-17" value="" style="edgeStyle=orthogonalEdgeStyle;rounded=0;orthogonalLoop=1;jettySize=auto;html=1;" edge="1" parent="1" source="t2Dr9ju3xtauYycBKMf6-11" target="t2Dr9ju3xtauYycBKMf6-16">
          <mxGeometry relative="1" as="geometry" />
        </mxCell>
        <mxCell id="t2Dr9ju3xtauYycBKMf6-11" value="多种网关泛化设备" style="rounded=0;whiteSpace=wrap;html=1;" vertex="1" parent="1">
          <mxGeometry x="10" y="147.5" width="80" height="200" as="geometry" />
        </mxCell>
        <mxCell id="t2Dr9ju3xtauYycBKMf6-12" value="" style="rounded=0;whiteSpace=wrap;html=1;" vertex="1" parent="1">
          <mxGeometry x="410" y="150" width="200" height="200" as="geometry" />
        </mxCell>
        <mxCell id="t2Dr9ju3xtauYycBKMf6-14" value="物联网中台" style="text;html=1;align=center;verticalAlign=middle;resizable=0;points=[];autosize=1;strokeColor=none;fillColor=none;" vertex="1" parent="1">
          <mxGeometry x="470" y="147.5" width="80" height="30" as="geometry" />
        </mxCell>
        <mxCell id="t2Dr9ju3xtauYycBKMf6-25" style="edgeStyle=orthogonalEdgeStyle;rounded=0;orthogonalLoop=1;jettySize=auto;html=1;entryX=0;entryY=0.25;entryDx=0;entryDy=0;" edge="1" parent="1" source="t2Dr9ju3xtauYycBKMf6-16" target="t2Dr9ju3xtauYycBKMf6-13">
          <mxGeometry relative="1" as="geometry" />
        </mxCell>
        <mxCell id="t2Dr9ju3xtauYycBKMf6-32" style="edgeStyle=orthogonalEdgeStyle;rounded=0;orthogonalLoop=1;jettySize=auto;html=1;entryX=0;entryY=0.5;entryDx=0;entryDy=0;" edge="1" parent="1" source="t2Dr9ju3xtauYycBKMf6-16" target="t2Dr9ju3xtauYycBKMf6-27">
          <mxGeometry relative="1" as="geometry" />
        </mxCell>
        <mxCell id="t2Dr9ju3xtauYycBKMf6-16" value="MQTT服务" style="shape=hexagon;perimeter=hexagonPerimeter2;whiteSpace=wrap;html=1;fixedSize=1;" vertex="1" parent="1">
          <mxGeometry x="140" y="165" width="90" height="165" as="geometry" />
        </mxCell>
        <mxCell id="t2Dr9ju3xtauYycBKMf6-13" value="" style="rounded=1;whiteSpace=wrap;html=1;" vertex="1" parent="1">
          <mxGeometry x="420" y="177.5" width="180" height="80" as="geometry" />
        </mxCell>
        <mxCell id="t2Dr9ju3xtauYycBKMf6-18" value="设备接入管理" style="text;html=1;align=center;verticalAlign=middle;resizable=0;points=[];autosize=1;strokeColor=none;fillColor=none;" vertex="1" parent="1">
          <mxGeometry x="460" y="170" width="100" height="30" as="geometry" />
        </mxCell>
        <mxCell id="t2Dr9ju3xtauYycBKMf6-23" value="" style="group" vertex="1" connectable="0" parent="1">
          <mxGeometry x="430" y="200" width="170" height="65" as="geometry" />
        </mxCell>
        <mxCell id="t2Dr9ju3xtauYycBKMf6-19" value="设备接入" style="rounded=0;whiteSpace=wrap;html=1;" vertex="1" parent="t2Dr9ju3xtauYycBKMf6-23">
          <mxGeometry width="60" height="20" as="geometry" />
        </mxCell>
        <mxCell id="t2Dr9ju3xtauYycBKMf6-20" value="设备详情" style="rounded=0;whiteSpace=wrap;html=1;" vertex="1" parent="t2Dr9ju3xtauYycBKMf6-23">
          <mxGeometry x="90" width="60" height="20" as="geometry" />
        </mxCell>
        <mxCell id="t2Dr9ju3xtauYycBKMf6-21" value="设备启用" style="rounded=0;whiteSpace=wrap;html=1;" vertex="1" parent="t2Dr9ju3xtauYycBKMf6-23">
          <mxGeometry y="30" width="60" height="20" as="geometry" />
        </mxCell>
        <mxCell id="t2Dr9ju3xtauYycBKMf6-22" value="设备停用" style="rounded=0;whiteSpace=wrap;html=1;" vertex="1" parent="t2Dr9ju3xtauYycBKMf6-23">
          <mxGeometry x="90" y="30" width="60" height="20" as="geometry" />
        </mxCell>
        <mxCell id="t2Dr9ju3xtauYycBKMf6-26" value="监听注册消息" style="text;html=1;align=center;verticalAlign=middle;resizable=0;points=[];autosize=1;strokeColor=none;fillColor=none;" vertex="1" parent="1">
          <mxGeometry x="320" y="177.5" width="100" height="30" as="geometry" />
        </mxCell>
        <mxCell id="t2Dr9ju3xtauYycBKMf6-27" value="" style="rounded=1;whiteSpace=wrap;html=1;" vertex="1" parent="1">
          <mxGeometry x="420" y="300" width="180" height="45" as="geometry" />
        </mxCell>
        <mxCell id="t2Dr9ju3xtauYycBKMf6-35" style="edgeStyle=orthogonalEdgeStyle;rounded=0;orthogonalLoop=1;jettySize=auto;html=1;" edge="1" parent="1" source="t2Dr9ju3xtauYycBKMf6-30" target="t2Dr9ju3xtauYycBKMf6-34">
          <mxGeometry relative="1" as="geometry" />
        </mxCell>
        <mxCell id="t2Dr9ju3xtauYycBKMf6-30" value="数据收集" style="rounded=0;whiteSpace=wrap;html=1;" vertex="1" parent="1">
          <mxGeometry x="430" y="312.5" width="60" height="20" as="geometry" />
        </mxCell>
        <mxCell id="t2Dr9ju3xtauYycBKMf6-31" value="数据分析" style="rounded=0;whiteSpace=wrap;html=1;" vertex="1" parent="1">
          <mxGeometry x="520" y="312.5" width="60" height="20" as="geometry" />
        </mxCell>
        <mxCell id="t2Dr9ju3xtauYycBKMf6-33" value="监听上报信息" style="text;html=1;align=center;verticalAlign=middle;resizable=0;points=[];autosize=1;strokeColor=none;fillColor=none;" vertex="1" parent="1">
          <mxGeometry x="320" y="300" width="100" height="30" as="geometry" />
        </mxCell>
        <mxCell id="t2Dr9ju3xtauYycBKMf6-34" value="大数据分布式存储" style="shape=cylinder3;whiteSpace=wrap;html=1;boundedLbl=1;backgroundOutline=1;size=15;" vertex="1" parent="1">
          <mxGeometry x="430" y="420" width="60" height="80" as="geometry" />
        </mxCell>
        <mxCell id="t2Dr9ju3xtauYycBKMf6-36" value="分布式云计算" style="ellipse;shape=cloud;whiteSpace=wrap;html=1;" vertex="1" parent="1">
          <mxGeometry x="514" y="430" width="90" height="60" as="geometry" />
        </mxCell>
        <mxCell id="t2Dr9ju3xtauYycBKMf6-37" style="edgeStyle=orthogonalEdgeStyle;rounded=0;orthogonalLoop=1;jettySize=auto;html=1;entryX=0.4;entryY=0.1;entryDx=0;entryDy=0;entryPerimeter=0;" edge="1" parent="1" source="t2Dr9ju3xtauYycBKMf6-31" target="t2Dr9ju3xtauYycBKMf6-36">
          <mxGeometry relative="1" as="geometry" />
        </mxCell>
        <mxCell id="t2Dr9ju3xtauYycBKMf6-38" style="edgeStyle=orthogonalEdgeStyle;rounded=0;orthogonalLoop=1;jettySize=auto;html=1;entryX=1;entryY=0.5;entryDx=0;entryDy=0;entryPerimeter=0;" edge="1" parent="1" source="t2Dr9ju3xtauYycBKMf6-36" target="t2Dr9ju3xtauYycBKMf6-34">
          <mxGeometry relative="1" as="geometry" />
        </mxCell>
        <mxCell id="t2Dr9ju3xtauYycBKMf6-39" value="" style="rounded=0;whiteSpace=wrap;html=1;" vertex="1" parent="1">
          <mxGeometry x="680" y="132.5" width="120" height="347.5" as="geometry" />
        </mxCell>
        <mxCell id="t2Dr9ju3xtauYycBKMf6-40" value="平台云服务" style="text;html=1;align=center;verticalAlign=middle;resizable=0;points=[];autosize=1;strokeColor=none;fillColor=none;" vertex="1" parent="1">
          <mxGeometry x="700" y="132.5" width="80" height="30" as="geometry" />
        </mxCell>
        <mxCell id="t2Dr9ju3xtauYycBKMf6-49" style="edgeStyle=orthogonalEdgeStyle;rounded=0;orthogonalLoop=1;jettySize=auto;html=1;entryX=1;entryY=0.5;entryDx=0;entryDy=0;" edge="1" parent="1" source="t2Dr9ju3xtauYycBKMf6-41" target="t2Dr9ju3xtauYycBKMf6-27">
          <mxGeometry relative="1" as="geometry">
            <Array as="points">
              <mxPoint x="645" y="323" />
            </Array>
          </mxGeometry>
        </mxCell>
        <mxCell id="t2Dr9ju3xtauYycBKMf6-41" value="大屏展示" style="rounded=0;whiteSpace=wrap;html=1;" vertex="1" parent="1">
          <mxGeometry x="690" y="293" width="100" height="50" as="geometry" />
        </mxCell>
        <mxCell id="t2Dr9ju3xtauYycBKMf6-47" style="edgeStyle=orthogonalEdgeStyle;rounded=0;orthogonalLoop=1;jettySize=auto;html=1;" edge="1" parent="1" source="t2Dr9ju3xtauYycBKMf6-42" target="t2Dr9ju3xtauYycBKMf6-13">
          <mxGeometry relative="1" as="geometry" />
        </mxCell>
        <mxCell id="t2Dr9ju3xtauYycBKMf6-42" value="设备管理" style="rounded=0;whiteSpace=wrap;html=1;" vertex="1" parent="1">
          <mxGeometry x="690" y="165" width="100" height="50" as="geometry" />
        </mxCell>
        <mxCell id="t2Dr9ju3xtauYycBKMf6-50" style="edgeStyle=orthogonalEdgeStyle;rounded=0;orthogonalLoop=1;jettySize=auto;html=1;entryX=1;entryY=0.5;entryDx=0;entryDy=0;" edge="1" parent="1" source="t2Dr9ju3xtauYycBKMf6-44" target="t2Dr9ju3xtauYycBKMf6-27">
          <mxGeometry relative="1" as="geometry" />
        </mxCell>
        <mxCell id="t2Dr9ju3xtauYycBKMf6-44" value="云函数计算" style="rounded=0;whiteSpace=wrap;html=1;" vertex="1" parent="1">
          <mxGeometry x="690" y="356" width="100" height="50" as="geometry" />
        </mxCell>
        <mxCell id="t2Dr9ju3xtauYycBKMf6-51" style="edgeStyle=orthogonalEdgeStyle;rounded=0;orthogonalLoop=1;jettySize=auto;html=1;entryX=1;entryY=0.5;entryDx=0;entryDy=0;" edge="1" parent="1" source="t2Dr9ju3xtauYycBKMf6-45" target="t2Dr9ju3xtauYycBKMf6-27">
          <mxGeometry relative="1" as="geometry" />
        </mxCell>
        <mxCell id="t2Dr9ju3xtauYycBKMf6-45" value="自定义报表" style="rounded=0;whiteSpace=wrap;html=1;" vertex="1" parent="1">
          <mxGeometry x="690" y="420" width="100" height="50" as="geometry" />
        </mxCell>
        <mxCell id="t2Dr9ju3xtauYycBKMf6-46" value="设备数据开放能力" style="rounded=0;whiteSpace=wrap;html=1;" vertex="1" parent="1">
          <mxGeometry x="690" y="229" width="100" height="50" as="geometry" />
        </mxCell>
        <mxCell id="t2Dr9ju3xtauYycBKMf6-52" style="edgeStyle=orthogonalEdgeStyle;rounded=0;orthogonalLoop=1;jettySize=auto;html=1;entryX=1.005;entryY=0.535;entryDx=0;entryDy=0;entryPerimeter=0;" edge="1" parent="1" source="t2Dr9ju3xtauYycBKMf6-46" target="t2Dr9ju3xtauYycBKMf6-12">
          <mxGeometry relative="1" as="geometry">
            <Array as="points">
              <mxPoint x="670" y="257" />
              <mxPoint x="670" y="257" />
            </Array>
          </mxGeometry>
        </mxCell>
      </root>
    </mxGraphModel>
  </diagram>
</mxfile>
